<svg width="1600" height="420" viewBox="0 0 1600 420" fill="none" xmlns="http://www.w3.org/2000/svg">
  <rect width="1600" height="420" rx="36" fill="#050816"/>
  <defs>
    <radialGradient id="r1" cx="0" cy="0" r="1" gradientUnits="userSpaceOnUse" gradientTransform="translate(320 120) rotate(38) scale(260 220)">
      <stop stop-color="#FFFFFF" stop-opacity="0.26"/>
      <stop offset="1" stop-color="#FFFFFF" stop-opacity="0"/>
    </radialGradient>
    <radialGradient id="r2" cx="0" cy="0" r="1" gradientUnits="userSpaceOnUse" gradientTransform="translate(1260 110) rotate(160) scale(280 220)">
      <stop stop-color="#E2E8F0" stop-opacity="0.18"/>
      <stop offset="1" stop-color="#E2E8F0" stop-opacity="0"/>
    </radialGradient>
    <linearGradient id="line" x1="170" y1="280" x2="1460" y2="280" gradientUnits="userSpaceOnUse">
      <stop stop-color="#FFFFFF" stop-opacity="0.05"/>
      <stop offset="0.5" stop-color="#FFFFFF" stop-opacity="0.35"/>
      <stop offset="1" stop-color="#FFFFFF" stop-opacity="0.05"/>
    </linearGradient>
    <linearGradient id="accent" x1="120" y1="60" x2="1480" y2="360" gradientUnits="userSpaceOnUse">
      <stop stop-color="#FFFFFF" stop-opacity="0.92"/>
      <stop offset="0.45" stop-color="#CBD5E1" stop-opacity="0.72"/>
      <stop offset="1" stop-color="#FFFFFF" stop-opacity="0.92"/>
    </linearGradient>
  </defs>

  <circle cx="300" cy="130" r="180" fill="url(#r1)"/>
  <circle cx="1290" cy="105" r="180" fill="url(#r2)"/>
  <circle cx="1360" cy="320" r="120" fill="#FFFFFF" fill-opacity="0.08"/>
  <circle cx="215" cy="315" r="90" fill="#FFFFFF" fill-opacity="0.06"/>

  <rect x="96" y="86" width="1408" height="248" rx="28" fill="#0B1120" fill-opacity="0.72" stroke="#FFFFFF" stroke-opacity="0.09"/>
  <path d="M150 286C255 216 350 232 448 174C553 113 645 148 738 134C846 117 924 160 1019 151C1114 142 1222 89 1350 112" stroke="url(#line)" stroke-width="3" stroke-linecap="round"/>
  <path d="M150 308C290 250 392 272 500 206C607 141 690 184 798 163C908 141 1003 190 1117 172C1226 156 1328 108 1460 132" stroke="#FFFFFF" stroke-opacity="0.14" stroke-width="1.5" stroke-linecap="round"/>

  <text x="170" y="168" fill="#FFFFFF" font-family="Inter, Segoe UI, Arial, sans-serif" font-size="48" font-weight="700">Talha Rashid</text>
  <text x="170" y="218" fill="#E2E8F0" font-family="Inter, Segoe UI, Arial, sans-serif" font-size="22" font-weight="500">Bold visuals. Clean engineering. Portfolio energy.</text>

  <rect x="170" y="238" width="196" height="40" rx="20" fill="#FFFFFF" fill-opacity="0.10" stroke="#FFFFFF" stroke-opacity="0.18"/>
  <text x="190" y="264" fill="url(#accent)" font-family="Inter, Segoe UI, Arial, sans-serif" font-size="16" font-weight="600" letter-spacing="1.2">rTalhaa on GitHub</text>

  <rect x="170" y="294" width="102" height="6" rx="3" fill="#FFFFFF" fill-opacity="0.7"/>
  <rect x="286" y="294" width="102" height="6" rx="3" fill="#FFFFFF" fill-opacity="0.28"/>
  <rect x="402" y="294" width="102" height="6" rx="3" fill="#FFFFFF" fill-opacity="0.12"/>
</svg>
